<?xml version="1.0" encoding="iso-8859-1"?>
<!-- Generator: Adobe Illustrator 19.0.0, SVG Export Plug-In . SVG Version: 6.00 Build 0)  -->
<!-- License: CC0. Made by SVG Repo: https://www.svgrepo.com/svg/169427/archery -->
<svg version="1.1" id="Layer_1" xmlns="http://www.w3.org/2000/svg" xmlns:xlink="http://www.w3.org/1999/xlink" x="0px" y="0px"
	 viewBox="0 0 512.002 512.002" style="enable-background:new 0 0 512.002 512.002;" xml:space="preserve">
<path style="fill:#F18D6D;" d="M92.115,272.012H48.248c-1.151,0-2.084-0.933-2.084-2.084v-27.856c0-1.151,0.933-2.084,2.084-2.084
	h43.867c1.151,0,2.084,0.933,2.084,2.084v27.856C94.199,271.078,93.266,272.012,92.115,272.012z"/>
<rect x="286.341" y="151.918" style="fill:#F9B233;" width="104.078" height="24.019"/>
<g>
	<rect x="406.623" y="151.918" style="fill:#5bf05b;" width="15.63" height="24.019"/>
	<rect x="206.282" style="fill:#5bf05b;" width="16.012" height="15.63"/>
	<rect x="206.282" y="496.372" style="fill:#5bf05b;" width="16.012" height="15.63"/>
	<path style="fill:#fff;" d="M150.432,248.185h-49.741c-3.243-9.311-12.102-16.012-22.504-16.012H33.518L45.432,256
		l-11.914,23.827h44.67c10.402,0,19.261-6.702,22.504-16.012h49.74v200.34c0,26.381,21.464,47.845,47.845,47.845v-15.63
		c-17.764,0-32.214-14.451-32.214-32.214c0-17.764,14.451-32.214,32.214-32.214c77.499,0,143.45-50.37,166.849-120.09h33.299v-15.63
		h-28.853c2.459-10.476,3.973-21.309,4.461-32.405h57.824l-7.911,11.868l13.005,8.67L455.853,256l-18.901-28.353l-13.005,8.67
		l7.911,11.868h-57.837c-0.488-10.937-1.993-21.791-4.479-32.405h69.102v8.196h15.63v-8.196h24.208v-15.63h-24.208v-8.197h-15.63
		v8.197h-73.529c-1.858-5.569-3.993-11.04-6.4-16.393h39.518v-39.648h-64.191c-33.59-40.749-82.846-64.049-135.765-64.049
		c-17.764,0-32.214-14.451-32.214-32.214s14.451-32.214,32.214-32.214V0c-26.381,0-47.845,21.464-47.845,47.845V248.185z
		 M78.188,264.197H58.81L62.909,256l-4.099-8.197h19.379c4.519,0,8.196,3.676,8.196,8.197
		C86.384,260.52,82.708,264.197,78.188,264.197z M382.603,168.125h-88.447v-8.387h88.447V168.125z M353.475,296.22h-19.097v15.63
		h14.164C325.82,372.79,267.038,416.31,198.276,416.31c-12.397,0-23.706,4.74-32.214,12.503V263.815h192.331
		C357.856,274.949,356.18,285.79,353.475,296.22z M358.376,248.185H166.063V83.186c8.508,7.762,19.817,12.503,32.214,12.503
		c43.732,0,84.716,17.468,114.801,48.418h-34.552v39.648h62.891c2.688,5.324,5.061,10.803,7.133,16.393h-22.179v15.63h27.088
		C356.19,226.356,357.84,237.223,358.376,248.185z"/>
</g>
</svg>
